<mxfile host="app.diagrams.net" agent="Mozilla/5.0 (Windows NT 10.0; Win64; x64) AppleWebKit/537.36 (KHTML, like Gecko) Chrome/127.0.0.0 Safari/537.36" version="24.7.7">
  <diagram name="Page-1" id="347TT58dcH0MzLungGjl">
    <mxGraphModel dx="683" dy="351" grid="1" gridSize="10" guides="1" tooltips="1" connect="1" arrows="1" fold="1" page="1" pageScale="1" pageWidth="850" pageHeight="1100" math="0" shadow="0">
      <root>
        <mxCell id="0" />
        <mxCell id="1" parent="0" />
        <mxCell id="USX80gVfWroeQub0HQB3-89" value="" style="rounded=1;whiteSpace=wrap;html=1;fillColor=#f5f5f5;strokeColor=#666666;fontColor=#333333;" vertex="1" parent="1">
          <mxGeometry x="41" y="10" width="560" height="530" as="geometry" />
        </mxCell>
        <mxCell id="USX80gVfWroeQub0HQB3-13" value="" style="edgeStyle=orthogonalEdgeStyle;rounded=0;orthogonalLoop=1;jettySize=auto;html=1;" edge="1" parent="1" source="USX80gVfWroeQub0HQB3-1" target="USX80gVfWroeQub0HQB3-6">
          <mxGeometry relative="1" as="geometry" />
        </mxCell>
        <mxCell id="USX80gVfWroeQub0HQB3-1" value="Data Collection" style="rounded=1;whiteSpace=wrap;html=1;fontStyle=1;fillColor=#ffe6cc;strokeColor=#d79b00;" vertex="1" parent="1">
          <mxGeometry x="80" y="40" width="120" height="40" as="geometry" />
        </mxCell>
        <mxCell id="USX80gVfWroeQub0HQB3-15" value="" style="edgeStyle=orthogonalEdgeStyle;rounded=0;orthogonalLoop=1;jettySize=auto;html=1;" edge="1" parent="1" source="USX80gVfWroeQub0HQB3-2" target="USX80gVfWroeQub0HQB3-3">
          <mxGeometry relative="1" as="geometry" />
        </mxCell>
        <mxCell id="USX80gVfWroeQub0HQB3-2" value="Data Cleaning" style="rounded=1;whiteSpace=wrap;html=1;fontStyle=1;fillColor=#ffe6cc;strokeColor=#d79b00;" vertex="1" parent="1">
          <mxGeometry x="80" y="200" width="120" height="40" as="geometry" />
        </mxCell>
        <mxCell id="USX80gVfWroeQub0HQB3-26" value="" style="edgeStyle=orthogonalEdgeStyle;rounded=0;orthogonalLoop=1;jettySize=auto;html=1;" edge="1" parent="1" source="USX80gVfWroeQub0HQB3-3" target="USX80gVfWroeQub0HQB3-5">
          <mxGeometry relative="1" as="geometry" />
        </mxCell>
        <mxCell id="USX80gVfWroeQub0HQB3-3" value="Data Analysis&lt;br&gt;and Visualization" style="rounded=1;whiteSpace=wrap;html=1;fontStyle=1;fillColor=#ffe6cc;strokeColor=#d79b00;" vertex="1" parent="1">
          <mxGeometry x="80" y="280" width="120" height="40" as="geometry" />
        </mxCell>
        <mxCell id="USX80gVfWroeQub0HQB3-28" value="" style="edgeStyle=orthogonalEdgeStyle;rounded=0;orthogonalLoop=1;jettySize=auto;html=1;" edge="1" parent="1" source="USX80gVfWroeQub0HQB3-5" target="USX80gVfWroeQub0HQB3-8">
          <mxGeometry relative="1" as="geometry" />
        </mxCell>
        <mxCell id="USX80gVfWroeQub0HQB3-5" value="Data Preprocessing" style="rounded=1;whiteSpace=wrap;html=1;fontStyle=1;fillColor=#ffe6cc;strokeColor=#d79b00;" vertex="1" parent="1">
          <mxGeometry x="80" y="360" width="120" height="40" as="geometry" />
        </mxCell>
        <mxCell id="USX80gVfWroeQub0HQB3-14" value="" style="edgeStyle=orthogonalEdgeStyle;rounded=0;orthogonalLoop=1;jettySize=auto;html=1;" edge="1" parent="1" source="USX80gVfWroeQub0HQB3-6" target="USX80gVfWroeQub0HQB3-2">
          <mxGeometry relative="1" as="geometry" />
        </mxCell>
        <mxCell id="USX80gVfWroeQub0HQB3-6" value="Data Annotation" style="rounded=1;whiteSpace=wrap;html=1;fontStyle=1;fillColor=#ffe6cc;strokeColor=#d79b00;" vertex="1" parent="1">
          <mxGeometry x="80" y="120" width="120" height="40" as="geometry" />
        </mxCell>
        <mxCell id="USX80gVfWroeQub0HQB3-40" value="" style="edgeStyle=orthogonalEdgeStyle;rounded=0;orthogonalLoop=1;jettySize=auto;html=1;" edge="1" parent="1" source="USX80gVfWroeQub0HQB3-7" target="USX80gVfWroeQub0HQB3-39">
          <mxGeometry relative="1" as="geometry" />
        </mxCell>
        <mxCell id="USX80gVfWroeQub0HQB3-7" value="Model Selection" style="rounded=1;whiteSpace=wrap;html=1;fontStyle=1;fillColor=#ffe6cc;strokeColor=#d79b00;" vertex="1" parent="1">
          <mxGeometry x="240" y="120" width="120" height="40" as="geometry" />
        </mxCell>
        <mxCell id="USX80gVfWroeQub0HQB3-29" value="" style="edgeStyle=orthogonalEdgeStyle;rounded=0;orthogonalLoop=1;jettySize=auto;html=1;" edge="1" parent="1" source="USX80gVfWroeQub0HQB3-8" target="USX80gVfWroeQub0HQB3-10">
          <mxGeometry relative="1" as="geometry" />
        </mxCell>
        <mxCell id="USX80gVfWroeQub0HQB3-32" value="" style="edgeStyle=orthogonalEdgeStyle;rounded=0;orthogonalLoop=1;jettySize=auto;html=1;" edge="1" parent="1" source="USX80gVfWroeQub0HQB3-8" target="USX80gVfWroeQub0HQB3-12">
          <mxGeometry relative="1" as="geometry" />
        </mxCell>
        <mxCell id="USX80gVfWroeQub0HQB3-8" value="Split Dataset" style="rounded=1;whiteSpace=wrap;html=1;fontStyle=1;fillColor=#ffe6cc;strokeColor=#d79b00;" vertex="1" parent="1">
          <mxGeometry x="240" y="360" width="120" height="40" as="geometry" />
        </mxCell>
        <mxCell id="USX80gVfWroeQub0HQB3-24" value="&lt;font style=&quot;font-size: 10px;&quot;&gt;Transforms&lt;/font&gt;" style="text;html=1;align=center;verticalAlign=middle;whiteSpace=wrap;rounded=0;" vertex="1" parent="1">
          <mxGeometry x="70" y="418" width="60" height="20" as="geometry" />
        </mxCell>
        <mxCell id="USX80gVfWroeQub0HQB3-33" value="" style="group" vertex="1" connectable="0" parent="1">
          <mxGeometry x="269.5" y="217" width="61" height="72.5" as="geometry" />
        </mxCell>
        <mxCell id="USX80gVfWroeQub0HQB3-10" value="Train&lt;br&gt;Set" style="shape=cylinder3;whiteSpace=wrap;html=1;boundedLbl=1;backgroundOutline=1;size=15;fillColor=#f9f7ed;strokeColor=#36393d;" vertex="1" parent="USX80gVfWroeQub0HQB3-33">
          <mxGeometry width="60" height="72.5" as="geometry" />
        </mxCell>
        <mxCell id="USX80gVfWroeQub0HQB3-30" value="80%" style="text;html=1;align=center;verticalAlign=middle;whiteSpace=wrap;rounded=0;" vertex="1" parent="USX80gVfWroeQub0HQB3-33">
          <mxGeometry x="1" y="6.5" width="60" height="20" as="geometry" />
        </mxCell>
        <mxCell id="USX80gVfWroeQub0HQB3-36" value="" style="group" vertex="1" connectable="0" parent="1">
          <mxGeometry x="469.75" y="343.75" width="61" height="72.5" as="geometry" />
        </mxCell>
        <mxCell id="USX80gVfWroeQub0HQB3-12" value="Test&lt;br&gt;Set" style="shape=cylinder3;whiteSpace=wrap;html=1;boundedLbl=1;backgroundOutline=1;size=15;fillColor=#f9f7ed;strokeColor=#36393d;" vertex="1" parent="USX80gVfWroeQub0HQB3-36">
          <mxGeometry width="60" height="72.5" as="geometry" />
        </mxCell>
        <mxCell id="USX80gVfWroeQub0HQB3-34" value="10%" style="text;html=1;align=center;verticalAlign=middle;whiteSpace=wrap;rounded=0;" vertex="1" parent="USX80gVfWroeQub0HQB3-36">
          <mxGeometry x="1" y="6" width="60" height="20" as="geometry" />
        </mxCell>
        <mxCell id="USX80gVfWroeQub0HQB3-38" value="" style="edgeStyle=orthogonalEdgeStyle;rounded=0;orthogonalLoop=1;jettySize=auto;html=1;" edge="1" parent="1" source="USX80gVfWroeQub0HQB3-10" target="USX80gVfWroeQub0HQB3-7">
          <mxGeometry relative="1" as="geometry" />
        </mxCell>
        <mxCell id="USX80gVfWroeQub0HQB3-39" value="Model Training" style="rounded=1;whiteSpace=wrap;html=1;fontStyle=1;fillColor=#ffe6cc;strokeColor=#d79b00;" vertex="1" parent="1">
          <mxGeometry x="240" y="40" width="120" height="40" as="geometry" />
        </mxCell>
        <mxCell id="USX80gVfWroeQub0HQB3-73" value="" style="edgeStyle=orthogonalEdgeStyle;rounded=0;orthogonalLoop=1;jettySize=auto;html=1;" edge="1" parent="1" source="USX80gVfWroeQub0HQB3-41" target="USX80gVfWroeQub0HQB3-50">
          <mxGeometry relative="1" as="geometry" />
        </mxCell>
        <mxCell id="USX80gVfWroeQub0HQB3-41" value="Model&lt;br&gt;Performance&lt;br&gt;Evaluation" style="rounded=1;whiteSpace=wrap;html=1;fontStyle=1;fillColor=#ffe6cc;strokeColor=#d79b00;" vertex="1" parent="1">
          <mxGeometry x="439.5" y="40" width="120" height="60" as="geometry" />
        </mxCell>
        <mxCell id="USX80gVfWroeQub0HQB3-44" value="" style="group" vertex="1" connectable="0" parent="1">
          <mxGeometry x="360" y="217" width="61" height="73" as="geometry" />
        </mxCell>
        <mxCell id="USX80gVfWroeQub0HQB3-11" value="Validation&lt;br&gt;Set" style="shape=cylinder3;whiteSpace=wrap;html=1;boundedLbl=1;backgroundOutline=1;size=15;fillColor=#f9f7ed;strokeColor=#36393d;" vertex="1" parent="USX80gVfWroeQub0HQB3-44">
          <mxGeometry width="60" height="73" as="geometry" />
        </mxCell>
        <mxCell id="USX80gVfWroeQub0HQB3-35" value="10%" style="text;html=1;align=center;verticalAlign=middle;whiteSpace=wrap;rounded=0;" vertex="1" parent="USX80gVfWroeQub0HQB3-44">
          <mxGeometry x="1" y="5.059860265945466" width="60" height="22.77034032003606" as="geometry" />
        </mxCell>
        <mxCell id="USX80gVfWroeQub0HQB3-45" style="edgeStyle=orthogonalEdgeStyle;rounded=0;orthogonalLoop=1;jettySize=auto;html=1;exitX=0.75;exitY=0;exitDx=0;exitDy=0;entryX=0.5;entryY=1;entryDx=0;entryDy=0;entryPerimeter=0;" edge="1" parent="1" source="USX80gVfWroeQub0HQB3-8" target="USX80gVfWroeQub0HQB3-11">
          <mxGeometry relative="1" as="geometry" />
        </mxCell>
        <mxCell id="USX80gVfWroeQub0HQB3-74" value="" style="edgeStyle=orthogonalEdgeStyle;rounded=0;orthogonalLoop=1;jettySize=auto;html=1;" edge="1" parent="1" source="USX80gVfWroeQub0HQB3-50" target="USX80gVfWroeQub0HQB3-65">
          <mxGeometry relative="1" as="geometry" />
        </mxCell>
        <mxCell id="USX80gVfWroeQub0HQB3-50" value="Model Optimization" style="rounded=1;whiteSpace=wrap;html=1;fontStyle=1;fillColor=#ffe6cc;strokeColor=#d79b00;" vertex="1" parent="1">
          <mxGeometry x="440.5" y="140" width="119.5" height="40" as="geometry" />
        </mxCell>
        <mxCell id="USX80gVfWroeQub0HQB3-53" value="" style="edgeStyle=orthogonalEdgeStyle;rounded=0;orthogonalLoop=1;jettySize=auto;html=1;" edge="1" parent="1" source="USX80gVfWroeQub0HQB3-52" target="USX80gVfWroeQub0HQB3-5">
          <mxGeometry relative="1" as="geometry" />
        </mxCell>
        <mxCell id="USX80gVfWroeQub0HQB3-52" value="Resize&lt;br&gt;To Tensor&lt;br&gt;Normalize Pixel" style="shape=parallelogram;perimeter=parallelogramPerimeter;whiteSpace=wrap;html=1;fixedSize=1;fillColor=#f9f7ed;strokeColor=#36393d;" vertex="1" parent="1">
          <mxGeometry x="75" y="450" width="130" height="60" as="geometry" />
        </mxCell>
        <mxCell id="USX80gVfWroeQub0HQB3-55" value="Hyperparameters" style="swimlane;whiteSpace=wrap;html=1;fontStyle=0;fillColor=#f9f7ed;strokeColor=#36393d;" vertex="1" parent="1">
          <mxGeometry x="640" y="25" width="175" height="90" as="geometry">
            <mxRectangle x="570" y="230" width="130" height="30" as="alternateBounds" />
          </mxGeometry>
        </mxCell>
        <mxCell id="USX80gVfWroeQub0HQB3-87" value="&lt;font style=&quot;color: rgb(51, 51, 51); font-size: 10px;&quot;&gt;Epoch: 10 ~ 20&lt;br&gt;Learning Rate: 0.001&lt;/font&gt;&lt;div style=&quot;color: rgb(51, 51, 51);&quot;&gt;&lt;font style=&quot;font-size: 10px;&quot;&gt;Loss Function: CrossEntropyLoss()&lt;br&gt;Optimizer: Adam&lt;/font&gt;&lt;/div&gt;" style="text;html=1;align=center;verticalAlign=middle;resizable=0;points=[];autosize=1;strokeColor=none;fillColor=none;" vertex="1" parent="USX80gVfWroeQub0HQB3-55">
          <mxGeometry y="20" width="180" height="70" as="geometry" />
        </mxCell>
        <mxCell id="USX80gVfWroeQub0HQB3-65" value="Final Evaluation" style="rounded=1;whiteSpace=wrap;html=1;fontStyle=1;fillColor=#ffe6cc;strokeColor=#d79b00;" vertex="1" parent="1">
          <mxGeometry x="440.5" y="239" width="119.5" height="40" as="geometry" />
        </mxCell>
        <mxCell id="USX80gVfWroeQub0HQB3-67" value="" style="edgeStyle=orthogonalEdgeStyle;rounded=0;orthogonalLoop=1;jettySize=auto;html=1;" edge="1" parent="1" source="USX80gVfWroeQub0HQB3-12" target="USX80gVfWroeQub0HQB3-65">
          <mxGeometry relative="1" as="geometry" />
        </mxCell>
        <mxCell id="USX80gVfWroeQub0HQB3-71" style="edgeStyle=orthogonalEdgeStyle;rounded=0;orthogonalLoop=1;jettySize=auto;html=1;entryX=-0.014;entryY=0.348;entryDx=0;entryDy=0;entryPerimeter=0;exitX=1;exitY=0.5;exitDx=0;exitDy=0;" edge="1" parent="1" source="USX80gVfWroeQub0HQB3-39">
          <mxGeometry relative="1" as="geometry">
            <mxPoint x="361.68" y="59.55483091787441" as="sourcePoint" />
            <mxPoint x="439.49999999999994" y="60.42999999999999" as="targetPoint" />
          </mxGeometry>
        </mxCell>
        <mxCell id="USX80gVfWroeQub0HQB3-72" style="edgeStyle=orthogonalEdgeStyle;rounded=0;orthogonalLoop=1;jettySize=auto;html=1;entryX=0.004;entryY=0.667;entryDx=0;entryDy=0;entryPerimeter=0;exitX=0.5;exitY=0;exitDx=0;exitDy=0;exitPerimeter=0;" edge="1" parent="1" source="USX80gVfWroeQub0HQB3-11" target="USX80gVfWroeQub0HQB3-41">
          <mxGeometry relative="1" as="geometry" />
        </mxCell>
        <mxCell id="USX80gVfWroeQub0HQB3-92" value="" style="group" vertex="1" connectable="0" parent="1">
          <mxGeometry x="640" y="140" width="179" height="376" as="geometry" />
        </mxCell>
        <mxCell id="USX80gVfWroeQub0HQB3-85" value="" style="rounded=1;whiteSpace=wrap;html=1;fillColor=#d5e8d4;strokeColor=#82b366;" vertex="1" parent="USX80gVfWroeQub0HQB3-92">
          <mxGeometry width="179" height="340" as="geometry" />
        </mxCell>
        <mxCell id="USX80gVfWroeQub0HQB3-82" style="edgeStyle=orthogonalEdgeStyle;rounded=0;orthogonalLoop=1;jettySize=auto;html=1;entryX=0.5;entryY=0;entryDx=0;entryDy=0;" edge="1" parent="USX80gVfWroeQub0HQB3-92" source="USX80gVfWroeQub0HQB3-77" target="USX80gVfWroeQub0HQB3-80">
          <mxGeometry relative="1" as="geometry" />
        </mxCell>
        <mxCell id="USX80gVfWroeQub0HQB3-77" value="Image" style="shape=cube;whiteSpace=wrap;html=1;boundedLbl=1;backgroundOutline=1;darkOpacity=0.05;darkOpacity2=0.1;fillColor=#ffcccc;strokeColor=#36393d;" vertex="1" parent="USX80gVfWroeQub0HQB3-92">
          <mxGeometry x="36.75" y="16.5" width="105" height="83" as="geometry" />
        </mxCell>
        <mxCell id="USX80gVfWroeQub0HQB3-84" value="" style="edgeStyle=orthogonalEdgeStyle;rounded=0;orthogonalLoop=1;jettySize=auto;html=1;" edge="1" parent="USX80gVfWroeQub0HQB3-92" source="USX80gVfWroeQub0HQB3-80" target="USX80gVfWroeQub0HQB3-83">
          <mxGeometry relative="1" as="geometry" />
        </mxCell>
        <mxCell id="USX80gVfWroeQub0HQB3-80" value="Highest&lt;br&gt;Performing Model" style="rounded=0;whiteSpace=wrap;html=1;fontStyle=1;fillColor=#f9f7ed;strokeColor=#36393d;" vertex="1" parent="USX80gVfWroeQub0HQB3-92">
          <mxGeometry x="29.25" y="154.5" width="120" height="60" as="geometry" />
        </mxCell>
        <mxCell id="USX80gVfWroeQub0HQB3-83" value="&lt;div&gt;Classification&lt;br&gt;Output&lt;/div&gt;" style="shape=parallelogram;perimeter=parallelogramPerimeter;whiteSpace=wrap;html=1;fixedSize=1;fillColor=#f8cecc;strokeColor=#b85450;" vertex="1" parent="USX80gVfWroeQub0HQB3-92">
          <mxGeometry x="29.379999999999995" y="262.75" width="120.25" height="54.5" as="geometry" />
        </mxCell>
        <mxCell id="USX80gVfWroeQub0HQB3-86" value="&lt;font style=&quot;font-size: 12px;&quot;&gt;Model Workflow&lt;/font&gt;" style="text;html=1;align=center;verticalAlign=middle;whiteSpace=wrap;rounded=0;fontStyle=1" vertex="1" parent="USX80gVfWroeQub0HQB3-92">
          <mxGeometry x="40" y="346" width="114.25" height="30" as="geometry" />
        </mxCell>
        <mxCell id="USX80gVfWroeQub0HQB3-123" value="&lt;b&gt;&lt;font style=&quot;font-size: 10px;&quot;&gt;12&lt;/font&gt;&lt;/b&gt;" style="text;html=1;align=center;verticalAlign=middle;whiteSpace=wrap;rounded=0;" vertex="1" parent="USX80gVfWroeQub0HQB3-92">
          <mxGeometry x="144.75" y="139.5" width="20" height="15" as="geometry" />
        </mxCell>
        <mxCell id="USX80gVfWroeQub0HQB3-93" style="edgeStyle=orthogonalEdgeStyle;rounded=0;orthogonalLoop=1;jettySize=auto;html=1;entryX=0;entryY=0.5;entryDx=0;entryDy=0;" edge="1" parent="1" source="USX80gVfWroeQub0HQB3-65" target="USX80gVfWroeQub0HQB3-80">
          <mxGeometry relative="1" as="geometry">
            <Array as="points">
              <mxPoint x="590" y="259" />
              <mxPoint x="590" y="325" />
            </Array>
          </mxGeometry>
        </mxCell>
        <mxCell id="USX80gVfWroeQub0HQB3-94" style="edgeStyle=orthogonalEdgeStyle;rounded=0;orthogonalLoop=1;jettySize=auto;html=1;entryX=1;entryY=0.5;entryDx=0;entryDy=0;" edge="1" parent="1" source="USX80gVfWroeQub0HQB3-87" target="USX80gVfWroeQub0HQB3-50">
          <mxGeometry relative="1" as="geometry">
            <Array as="points">
              <mxPoint x="590" y="82" />
              <mxPoint x="590" y="160" />
            </Array>
          </mxGeometry>
        </mxCell>
        <mxCell id="USX80gVfWroeQub0HQB3-111" value="&lt;font style=&quot;font-size: 12px;&quot;&gt;Model Training Workflow&lt;/font&gt;" style="text;html=1;align=center;verticalAlign=middle;whiteSpace=wrap;rounded=0;fontStyle=1" vertex="1" parent="1">
          <mxGeometry x="243.87" y="541" width="154.25" height="30" as="geometry" />
        </mxCell>
        <mxCell id="USX80gVfWroeQub0HQB3-112" value="&lt;b&gt;&lt;font style=&quot;font-size: 10px;&quot;&gt;1&lt;/font&gt;&lt;/b&gt;" style="text;html=1;align=center;verticalAlign=middle;whiteSpace=wrap;rounded=0;" vertex="1" parent="1">
          <mxGeometry x="193" y="27" width="20" height="15" as="geometry" />
        </mxCell>
        <mxCell id="USX80gVfWroeQub0HQB3-113" value="&lt;b&gt;&lt;font style=&quot;font-size: 10px;&quot;&gt;2&lt;/font&gt;&lt;/b&gt;" style="text;html=1;align=center;verticalAlign=middle;whiteSpace=wrap;rounded=0;" vertex="1" parent="1">
          <mxGeometry x="193" y="107" width="20" height="15" as="geometry" />
        </mxCell>
        <mxCell id="USX80gVfWroeQub0HQB3-114" value="&lt;b&gt;&lt;font style=&quot;font-size: 10px;&quot;&gt;3&lt;/font&gt;&lt;/b&gt;" style="text;html=1;align=center;verticalAlign=middle;whiteSpace=wrap;rounded=0;" vertex="1" parent="1">
          <mxGeometry x="194" y="188" width="20" height="15" as="geometry" />
        </mxCell>
        <mxCell id="USX80gVfWroeQub0HQB3-115" value="&lt;b&gt;&lt;font style=&quot;font-size: 10px;&quot;&gt;4&lt;/font&gt;&lt;/b&gt;" style="text;html=1;align=center;verticalAlign=middle;whiteSpace=wrap;rounded=0;" vertex="1" parent="1">
          <mxGeometry x="195" y="267.5" width="20" height="15" as="geometry" />
        </mxCell>
        <mxCell id="USX80gVfWroeQub0HQB3-116" value="&lt;b&gt;&lt;font style=&quot;font-size: 10px;&quot;&gt;5&lt;/font&gt;&lt;/b&gt;" style="text;html=1;align=center;verticalAlign=middle;whiteSpace=wrap;rounded=0;" vertex="1" parent="1">
          <mxGeometry x="194" y="346" width="20" height="15" as="geometry" />
        </mxCell>
        <mxCell id="USX80gVfWroeQub0HQB3-117" value="&lt;b&gt;&lt;font style=&quot;font-size: 10px;&quot;&gt;6&lt;/font&gt;&lt;/b&gt;" style="text;html=1;align=center;verticalAlign=middle;whiteSpace=wrap;rounded=0;" vertex="1" parent="1">
          <mxGeometry x="353" y="347" width="20" height="15" as="geometry" />
        </mxCell>
        <mxCell id="USX80gVfWroeQub0HQB3-118" value="&lt;b&gt;&lt;font style=&quot;font-size: 10px;&quot;&gt;7&lt;/font&gt;&lt;/b&gt;" style="text;html=1;align=center;verticalAlign=middle;whiteSpace=wrap;rounded=0;" vertex="1" parent="1">
          <mxGeometry x="353" y="107" width="20" height="15" as="geometry" />
        </mxCell>
        <mxCell id="USX80gVfWroeQub0HQB3-119" value="&lt;b&gt;&lt;font style=&quot;font-size: 10px;&quot;&gt;8&lt;/font&gt;&lt;/b&gt;" style="text;html=1;align=center;verticalAlign=middle;whiteSpace=wrap;rounded=0;" vertex="1" parent="1">
          <mxGeometry x="353" y="27" width="20" height="15" as="geometry" />
        </mxCell>
        <mxCell id="USX80gVfWroeQub0HQB3-120" value="&lt;b&gt;&lt;font style=&quot;font-size: 10px;&quot;&gt;9&lt;/font&gt;&lt;/b&gt;" style="text;html=1;align=center;verticalAlign=middle;whiteSpace=wrap;rounded=0;" vertex="1" parent="1">
          <mxGeometry x="550" y="27" width="20" height="15" as="geometry" />
        </mxCell>
        <mxCell id="USX80gVfWroeQub0HQB3-121" value="&lt;b&gt;&lt;font style=&quot;font-size: 10px;&quot;&gt;10&lt;/font&gt;&lt;/b&gt;" style="text;html=1;align=center;verticalAlign=middle;whiteSpace=wrap;rounded=0;" vertex="1" parent="1">
          <mxGeometry x="553" y="126" width="20" height="15" as="geometry" />
        </mxCell>
        <mxCell id="USX80gVfWroeQub0HQB3-122" value="&lt;b&gt;&lt;font style=&quot;font-size: 10px;&quot;&gt;11&lt;/font&gt;&lt;/b&gt;" style="text;html=1;align=center;verticalAlign=middle;whiteSpace=wrap;rounded=0;" vertex="1" parent="1">
          <mxGeometry x="553" y="225" width="20" height="15" as="geometry" />
        </mxCell>
      </root>
    </mxGraphModel>
  </diagram>
</mxfile>
